<svg width="436" height="589" viewBox="0 0 436 589" fill="none" xmlns="http://www.w3.org/2000/svg">
<g filter="url(#filter0_d_9035_11)">
<path fill-rule="evenodd" clip-rule="evenodd" d="M138.936 35.0211C134.625 41.5867 129.485 51.5034 125.049 61.8169C124.108 64.005 123.037 66.4733 122.669 67.3015C119.217 75.0722 110.113 99.914 107.56 108.527C105.761 114.598 103.192 125.36 102.078 131.493C101.909 132.424 101.496 134.627 101.161 136.387C100.187 141.494 98.3617 152.685 97.5678 158.411C97.1662 161.31 96.6447 165.008 96.409 166.628C96.1734 168.248 95.961 170.874 95.937 172.463C95.8965 175.155 95.949 175.361 96.7039 175.469C97.2347 175.545 99.9468 173.985 104.571 170.944C111.088 166.657 114.775 164.25 132.418 152.764C135.917 150.486 142.67 146.081 147.426 142.975C152.181 139.869 158.451 135.778 161.358 133.883C164.52 131.822 166.881 130.519 167.234 130.64C167.559 130.752 168.976 131.964 170.384 133.333C174.239 137.084 190.287 154.458 190.417 155.024C190.708 156.28 189.343 155.728 183.696 152.306C180.353 150.28 177.185 148.368 176.655 148.056C175.089 147.134 169.8 143.812 168.428 142.889C167.729 142.419 166.783 142.034 166.325 142.034C164.986 142.034 156.069 148.36 118.747 175.786C79.9608 204.286 75.3778 207.595 75.089 207.296C74.4843 206.671 73.8751 177.895 74.1299 161.988C74.5817 133.752 76.5973 112.184 80.7614 91.0202C82.2761 83.3207 84.5749 74.2059 86.3158 68.9957C87.6657 64.9564 87.814 64.0976 87.161 64.1037C86.4837 64.1101 81.7463 73.7553 79.119 80.4786C71.7221 99.4054 66.4554 120.87 62.7681 147.117C58.1889 179.716 56.0647 210.489 57.0788 229.549C57.5441 238.292 57.8847 240.109 59.0596 240.109C59.8122 240.109 63.7632 236.991 90.2709 215.477C109.921 199.53 114.747 195.606 124.554 187.6C145.611 170.411 165.085 155.102 166.444 154.669C167.495 154.334 170.956 155.768 180.469 160.484C188.732 164.58 190.022 165.645 186.276 165.276C184.132 165.065 174.313 163.707 171.009 163.165C169.665 162.944 168.688 162.961 168.199 163.215C167.166 163.751 160.829 169.249 138.603 188.898C135.306 191.813 129.068 197.324 124.741 201.146C120.414 204.967 116.689 208.267 116.464 208.477C116.239 208.688 111.867 212.588 106.749 217.143C85.069 236.44 68.0764 251.799 56.8372 262.258L51.2659 267.442C50.4586 268.193 50 269.247 50 270.349V270.349C50 273.985 52.5895 294.151 54.8913 308.442C64.1764 366.082 81.1151 414.681 102.649 445.463C106.062 450.342 113.178 459.66 113.771 460.029C114.653 460.577 114.353 459.613 112.767 456.804C104.067 441.396 93.2212 413.967 87.8204 393.716C85.196 383.876 84.4898 380.974 82.7365 372.821C81.7062 368.03 81.4886 366.857 80.3631 360.02C79.9372 357.432 79.4288 354.382 79.234 353.244C78.3573 348.122 76.4819 330.517 75.8592 321.563C75.3808 314.687 75.3752 286.62 75.8513 282.936C76.0454 281.436 76.4579 279.715 76.7681 279.112C77.5788 277.537 87.3067 266.597 108.444 243.489C112.05 239.547 117.852 233.193 121.336 229.368C124.821 225.544 128.535 221.482 129.589 220.344C130.643 219.205 133.776 215.732 136.552 212.626C139.327 209.52 141.69 206.894 141.802 206.79C142.247 206.379 156.631 189.931 163.402 182.091C167.898 176.886 171.015 173.592 171.725 173.297C173.398 172.6 189.431 173.603 189.943 174.435C190.216 174.88 189.936 175.004 183.115 177.449C179.673 178.683 176.51 179.922 176.087 180.203C175.664 180.483 170.358 188.57 164.295 198.175C158.233 207.779 152.729 216.485 152.064 217.52C150.648 219.725 125.172 260.634 120.413 268.346C118.624 271.245 113.934 278.771 109.992 285.07C105.793 291.78 102.824 296.901 102.824 297.435C102.824 298.566 105.258 320.614 106.034 326.513C109.328 351.56 112.398 367.071 119.112 392.586C121.405 401.303 127.789 422.905 130.239 430.235C139.815 458.896 151.183 484.247 168.521 515.604C170.096 518.451 171.384 520.95 171.384 521.157C171.384 521.364 171.552 521.533 171.758 521.533C171.964 521.533 172.133 521.425 172.133 521.294C172.133 521.162 170.965 517.985 169.537 514.234C164.408 500.762 154.797 472.246 152.646 464.119C152.481 463.498 151.903 461.55 151.361 459.789C150.82 458.029 150.056 455.403 149.666 453.954C149.014 451.531 147.792 447.104 145.925 440.4C145.312 438.2 142.997 429.117 142.375 426.47C142.277 426.056 141.692 423.6 141.074 421.011C137.087 404.302 133.275 384.842 131.487 372.068C129.813 360.113 127.954 338.296 126.964 318.983C126.094 302.005 125.983 302.9 129.968 294.7C131.78 290.973 134.062 286.229 135.039 284.158C137.102 279.788 148.88 255.249 160.337 231.45C175.01 200.972 180.401 190.057 181.234 189.143C182.66 187.578 189.806 183.027 190.647 183.147C191.14 183.219 191.738 183.882 192.274 184.954C193.323 187.052 196.485 194.003 196.485 194.213C196.485 194.297 193.818 198.39 190.559 203.308C182.152 215.993 182.13 216.035 181.938 220.083C181.599 227.201 183.958 245.107 187.897 265.312C193.605 294.592 199.129 314.013 207.174 333.094L207.218 333.198C207.451 333.75 208.222 333.778 208.494 333.245V333.245C209.366 331.539 211.503 329.643 213.699 328.629C216.283 327.436 220.355 327.553 223.144 328.9C225.091 329.84 227.133 331.705 228.192 333.508C228.425 333.906 228.734 334.118 228.879 333.979C229.797 333.102 235.367 317.783 238.44 307.689C239.976 302.643 244.072 287.014 244.805 283.405C245.015 282.37 245.439 280.422 245.746 279.076C246.292 276.685 249.692 259.47 250.431 255.357C250.79 253.358 251.578 248.566 252.32 243.874C253.74 234.899 254.723 223.869 254.48 219.651C254.27 216.003 254.045 215.575 245.889 203.306C242.618 198.386 239.943 194.295 239.943 194.213C239.943 194.131 240.597 192.65 241.396 190.921C242.195 189.192 243.223 186.9 243.679 185.828C245.128 182.419 245.31 182.38 249.059 184.668C255.446 188.568 254.956 187.883 262.713 203.755C266.514 211.533 270.513 219.76 271.6 222.038C272.687 224.316 275.133 229.398 277.036 233.332C278.939 237.267 281.633 242.858 283.022 245.756C284.411 248.655 287.868 255.856 290.704 261.757C293.54 267.659 296.911 274.69 298.197 277.381C299.482 280.073 302.608 286.596 305.143 291.876C308.8 299.492 309.789 301.891 309.926 303.482C310.398 308.966 308.199 343.344 306.226 361.338C303.865 382.872 297.877 413.139 290.882 438.894C290.095 441.793 289.114 445.436 288.703 446.989C287.698 450.78 284.341 462.57 283.664 464.684C283.365 465.616 282.499 468.411 281.738 470.896C277.729 483.998 270.126 506.012 265.549 517.768C264.461 520.562 264.019 522.452 264.668 521.533C264.887 521.223 266.515 518.343 268.285 515.133C280.946 492.175 289.975 473.248 298.28 452.26C302.859 440.686 309.648 420.711 311.395 413.67C311.498 413.256 311.913 411.816 312.318 410.47C312.976 408.279 315.812 398.221 317.307 392.775C318.449 388.611 320.061 382.32 321.02 378.28C321.56 376.002 322.245 373.122 322.542 371.88C324.075 365.455 325.134 360.035 327.799 344.961C328.789 339.364 330.85 323.709 332.137 312.018C332.364 309.948 332.788 306.312 333.077 303.94C333.989 296.46 334.66 298.251 325.311 283.201C318.088 271.573 315.086 266.757 309.131 257.239C306.82 253.546 290.07 226.644 288.151 223.544C280.195 210.69 261.428 181.22 260.785 180.57C260.341 180.122 257.488 178.887 254.367 177.792C251.276 176.708 248.284 175.657 247.717 175.456C247.15 175.255 246.687 174.876 246.687 174.612C246.687 173.972 248.159 173.773 256.869 173.238C263.523 172.829 264.332 172.844 265.17 173.396C265.68 173.732 268.767 177.106 272.028 180.892C285.213 196.202 298.544 211.201 314.122 228.252C323.859 238.909 341.591 258.354 346.909 264.204C354.492 272.548 359.234 278.218 359.913 279.753C360.532 281.152 360.672 282.798 360.946 291.903C361.236 301.495 360.968 316.997 360.384 324.516C360.005 329.399 359.085 338.958 358.725 341.761C358.538 343.21 358.187 346.006 357.943 347.973C356.009 363.597 350.988 386.958 346.533 401.057C344.879 406.294 341.401 416.789 341.107 417.435C340.918 417.849 340.331 419.431 339.802 420.951C336.618 430.098 328.065 449.119 323.538 457.12C319.811 463.707 324.585 458.899 331.156 449.448C344.827 429.787 356.175 406.22 364.919 379.333C372.5 356.022 379.348 325.63 383.253 297.958C384.429 289.622 385.929 276.892 386.266 272.372L386.319 271.661C386.451 269.89 385.794 268.152 384.523 266.912L384.047 266.447C381.307 263.774 366.374 250.007 360.203 244.464C358.039 242.521 353.403 238.353 349.9 235.202C341.677 227.805 332.564 219.642 329.271 216.723C327.842 215.456 323.545 211.644 319.722 208.252C301.23 191.841 289.562 181.534 280.567 173.665C276.666 170.252 273.389 167.372 273.286 167.265C272.576 166.528 268.839 163.538 268.228 163.218C267.742 162.964 266.755 162.941 265.419 163.154C259.621 164.075 250.121 165.379 249.215 165.378C248.616 165.377 248.185 165.17 248.185 164.882C248.185 164.345 265.757 155.535 268.269 154.813C269.599 154.431 269.955 154.464 270.891 155.055C273.983 157.006 294.363 173.282 327.422 200.203C349.008 217.78 364.892 230.631 371.518 235.876C377.211 240.384 378.206 240.82 378.73 239.039C379.242 237.296 379.696 221.584 379.481 213.002C379.357 208.032 378.927 199.307 378.525 193.613C377.524 179.445 377.404 178.167 375.576 162.176C375.013 157.251 373.753 147.72 373.11 143.514C372.78 141.354 372.367 138.655 372.192 137.516C372.018 136.378 371.706 134.599 371.501 133.563C371.295 132.528 370.929 130.58 370.686 129.234C367.57 111.956 362.863 94.7369 357.514 81.0433C355.147 74.9834 351.011 66.3321 349.775 64.8544L349.535 64.5672C349.347 64.342 348.98 64.472 348.976 64.7655V64.7655C348.969 65.2342 349.127 65.9119 349.327 66.2715C350.143 67.7398 353.96 81.7579 355.143 87.6318C360.342 113.445 362.215 134.845 362.245 168.765C362.263 189.841 361.846 207.033 361.306 207.367C361.043 207.531 359.147 206.194 348.211 198.131C346.386 196.785 341.551 193.246 337.468 190.266C333.385 187.286 328.782 183.898 327.241 182.736C325.699 181.575 324.069 180.37 323.618 180.059C322.341 179.179 310.983 170.903 310.563 170.548C310.357 170.373 307.238 168.078 303.632 165.447C300.026 162.816 296.287 160.072 295.323 159.349C294.36 158.626 292.036 156.934 290.159 155.588C288.283 154.242 285.7 152.371 284.419 151.431C277.844 146.603 271.009 142.034 270.362 142.034C269.684 142.034 267.557 143.279 252.411 152.538C247.141 155.759 245.714 156.313 246.01 155.019C246.14 154.452 263.017 136.213 266.474 132.904C267.755 131.677 269.075 130.74 269.522 130.74C269.954 130.74 273.212 132.651 276.761 134.986C280.31 137.322 286.462 141.346 290.431 143.928C317.24 161.368 323.83 165.664 331.867 170.942C336.437 173.942 339.217 175.542 339.734 175.468C340.828 175.311 340.938 173.506 340.188 168.012C339.862 165.631 339.42 162.327 339.206 160.67C338.393 154.409 336.479 142.744 334.88 134.316C331.755 117.849 328.994 107.641 323.933 93.8439C323.515 92.705 322.47 89.8249 321.612 87.4436C318.7 79.3713 313.476 66.4032 310.72 60.4043C310.118 59.0956 309.626 57.9466 309.626 57.8502C309.626 57.7542 308.007 54.42 306.029 50.4409C302.914 44.1777 297.757 35.0302 296.008 32.6655C294.585 30.7424 295.133 33.0126 297.572 39.1486C308.017 65.4278 314.993 92.3421 318.59 120.251C319.354 126.176 319.657 128.707 320.681 137.705C321.802 147.557 321.946 148.694 322.193 149.684C322.369 150.387 322.299 150.693 321.964 150.693C321.525 150.693 316.938 147.801 297.14 135.044C293.466 132.677 290.306 130.74 290.116 130.74C289.926 130.74 289.77 130.57 289.77 130.363C289.77 130.156 289.614 129.987 289.423 129.987C289.232 129.987 288.094 129.331 286.894 128.53C285.694 127.728 283.448 126.258 281.903 125.261C280.357 124.265 278.391 122.972 277.533 122.389C276.675 121.805 275.905 121.327 275.821 121.327C275.737 121.327 274.259 120.396 272.537 119.257C270.814 118.118 269.091 117.186 268.707 117.186C268.007 117.186 256.341 128.924 246.912 139.116C241.002 145.505 240.63 145.651 241.865 141.093C242.258 139.644 242.618 137.526 242.666 136.387C242.742 134.575 242.579 134.034 241.364 132.057C239.479 128.992 235.432 124.394 231.851 121.249C228.777 118.549 225.83 116.56 225.457 116.935C225.339 117.053 225.853 117.988 226.601 119.01C229.105 122.439 230.952 127.581 230.952 131.127C230.952 133.245 230.062 136.39 229.138 137.536V137.536C228.714 138.062 228.045 138.329 227.376 138.238L223.369 137.697C218.892 137.092 217.843 137.068 214.596 137.491C212.568 137.755 210.136 138.057 209.193 138.162V138.162C208.172 138.276 207.197 137.712 206.785 136.772L206.594 136.335C204.42 131.369 205.876 123.922 210.065 118.581C213.33 114.417 207.073 118.47 201.666 124.021C197.875 127.913 195.177 131.387 194.144 133.706C193.487 135.181 193.456 135.599 193.849 137.659C194.09 138.927 194.529 140.799 194.824 141.82C195.119 142.841 195.361 143.815 195.361 143.985C195.361 145.024 193.762 143.69 189.527 139.116C180.372 129.232 168.448 117.186 167.818 117.186C167.313 117.186 152.6 126.366 148.493 129.243C147.958 129.618 146.44 130.596 145.122 131.415C143.803 132.235 138.93 135.343 134.294 138.322C129.658 141.301 124.548 144.583 122.938 145.616C121.329 146.648 118.922 148.213 117.591 149.093C114.822 150.923 113.852 151.14 114.212 149.846C114.342 149.38 115.034 143.917 115.749 137.705C117.759 120.254 117.789 120.023 119.296 110.033C120.999 98.7405 125.973 76.4603 128.29 69.7487C128.469 69.231 128.908 67.791 129.267 66.5486C131.496 58.8279 135.581 47.1681 138.7 39.6297C141.253 33.4583 141.7 32.0977 141.175 32.1034C140.997 32.1053 139.989 33.4184 138.936 35.0211Z" fill="url(#paint0_linear_9035_11)"/>
<path fill-rule="evenodd" clip-rule="evenodd" d="M138.936 35.0211C134.625 41.5867 129.485 51.5034 125.049 61.8169C124.108 64.005 123.037 66.4733 122.669 67.3015C119.217 75.0722 110.113 99.914 107.56 108.527C105.761 114.598 103.192 125.36 102.078 131.493C101.909 132.424 101.496 134.627 101.161 136.387C100.187 141.494 98.3617 152.685 97.5678 158.411C97.1662 161.31 96.6447 165.008 96.409 166.628C96.1734 168.248 95.961 170.874 95.937 172.463C95.8965 175.155 95.949 175.361 96.7039 175.469C97.2347 175.545 99.9468 173.985 104.571 170.944C111.088 166.657 114.775 164.25 132.418 152.764C135.917 150.486 142.67 146.081 147.426 142.975C152.181 139.869 158.451 135.778 161.358 133.883C164.52 131.822 166.881 130.519 167.234 130.64C167.559 130.752 168.976 131.964 170.384 133.333C174.239 137.084 190.287 154.458 190.417 155.024C190.708 156.28 189.343 155.728 183.696 152.306C180.353 150.28 177.185 148.368 176.655 148.056C175.089 147.134 169.8 143.812 168.428 142.889C167.729 142.419 166.783 142.034 166.325 142.034C164.986 142.034 156.069 148.36 118.747 175.786C79.9608 204.286 75.3778 207.595 75.089 207.296C74.4843 206.671 73.8751 177.895 74.1299 161.988C74.5817 133.752 76.5973 112.184 80.7614 91.0202C82.2761 83.3207 84.5749 74.2059 86.3158 68.9957C87.6657 64.9564 87.814 64.0976 87.161 64.1037C86.4837 64.1101 81.7463 73.7553 79.119 80.4786C71.7221 99.4054 66.4554 120.87 62.7681 147.117C58.1889 179.716 56.0647 210.489 57.0788 229.549C57.5441 238.292 57.8847 240.109 59.0596 240.109C59.8122 240.109 63.7632 236.991 90.2709 215.477C109.921 199.53 114.747 195.606 124.554 187.6C145.611 170.411 165.085 155.102 166.444 154.669C167.495 154.334 170.956 155.768 180.469 160.484C188.732 164.58 190.022 165.645 186.276 165.276C184.132 165.065 174.313 163.707 171.009 163.165C169.665 162.944 168.688 162.961 168.199 163.215C167.166 163.751 160.829 169.249 138.603 188.898C135.306 191.813 129.068 197.324 124.741 201.146C120.414 204.967 116.689 208.267 116.464 208.477C116.239 208.688 111.867 212.588 106.749 217.143C85.069 236.44 68.0764 251.799 56.8372 262.258L51.2659 267.442C50.4586 268.193 50 269.247 50 270.349V270.349C50 273.985 52.5895 294.151 54.8913 308.442C64.1764 366.082 81.1151 414.681 102.649 445.463C106.062 450.342 113.178 459.66 113.771 460.029C114.653 460.577 114.353 459.613 112.767 456.804C104.067 441.396 93.2212 413.967 87.8204 393.716C85.196 383.876 84.4898 380.974 82.7365 372.821C81.7062 368.03 81.4886 366.857 80.3631 360.02C79.9372 357.432 79.4288 354.382 79.234 353.244C78.3573 348.122 76.4819 330.517 75.8592 321.563C75.3808 314.687 75.3752 286.62 75.8513 282.936C76.0454 281.436 76.4579 279.715 76.7681 279.112C77.5788 277.537 87.3067 266.597 108.444 243.489C112.05 239.547 117.852 233.193 121.336 229.368C124.821 225.544 128.535 221.482 129.589 220.344C130.643 219.205 133.776 215.732 136.552 212.626C139.327 209.52 141.69 206.894 141.802 206.79C142.247 206.379 156.631 189.931 163.402 182.091C167.898 176.886 171.015 173.592 171.725 173.297C173.398 172.6 189.431 173.603 189.943 174.435C190.216 174.88 189.936 175.004 183.115 177.449C179.673 178.683 176.51 179.922 176.087 180.203C175.664 180.483 170.358 188.57 164.295 198.175C158.233 207.779 152.729 216.485 152.064 217.52C150.648 219.725 125.172 260.634 120.413 268.346C118.624 271.245 113.934 278.771 109.992 285.07C105.793 291.78 102.824 296.901 102.824 297.435C102.824 298.566 105.258 320.614 106.034 326.513C109.328 351.56 112.398 367.071 119.112 392.586C121.405 401.303 127.789 422.905 130.239 430.235C139.815 458.896 151.183 484.247 168.521 515.604C170.096 518.451 171.384 520.95 171.384 521.157C171.384 521.364 171.552 521.533 171.758 521.533C171.964 521.533 172.133 521.425 172.133 521.294C172.133 521.162 170.965 517.985 169.537 514.234C164.408 500.762 154.797 472.246 152.646 464.119C152.481 463.498 151.903 461.55 151.361 459.789C150.82 458.029 150.056 455.403 149.666 453.954C149.014 451.531 147.792 447.104 145.925 440.4C145.312 438.2 142.997 429.117 142.375 426.47C142.277 426.056 141.692 423.6 141.074 421.011C137.087 404.302 133.275 384.842 131.487 372.068C129.813 360.113 127.954 338.296 126.964 318.983C126.094 302.005 125.983 302.9 129.968 294.7C131.78 290.973 134.062 286.229 135.039 284.158C137.102 279.788 148.88 255.249 160.337 231.45C175.01 200.972 180.401 190.057 181.234 189.143C182.66 187.578 189.806 183.027 190.647 183.147C191.14 183.219 191.738 183.882 192.274 184.954C193.323 187.052 196.485 194.003 196.485 194.213C196.485 194.297 193.818 198.39 190.559 203.308C182.152 215.993 182.13 216.035 181.938 220.083C181.599 227.201 183.958 245.107 187.897 265.312C193.605 294.592 199.129 314.013 207.174 333.094L207.218 333.198C207.451 333.75 208.222 333.778 208.494 333.245V333.245C209.366 331.539 211.503 329.643 213.699 328.629C216.283 327.436 220.355 327.553 223.144 328.9C225.091 329.84 227.133 331.705 228.192 333.508C228.425 333.906 228.734 334.118 228.879 333.979C229.797 333.102 235.367 317.783 238.44 307.689C239.976 302.643 244.072 287.014 244.805 283.405C245.015 282.37 245.439 280.422 245.746 279.076C246.292 276.685 249.692 259.47 250.431 255.357C250.79 253.358 251.578 248.566 252.32 243.874C253.74 234.899 254.723 223.869 254.48 219.651C254.27 216.003 254.045 215.575 245.889 203.306C242.618 198.386 239.943 194.295 239.943 194.213C239.943 194.131 240.597 192.65 241.396 190.921C242.195 189.192 243.223 186.9 243.679 185.828C245.128 182.419 245.31 182.38 249.059 184.668C255.446 188.568 254.956 187.883 262.713 203.755C266.514 211.533 270.513 219.76 271.6 222.038C272.687 224.316 275.133 229.398 277.036 233.332C278.939 237.267 281.633 242.858 283.022 245.756C284.411 248.655 287.868 255.856 290.704 261.757C293.54 267.659 296.911 274.69 298.197 277.381C299.482 280.073 302.608 286.596 305.143 291.876C308.8 299.492 309.789 301.891 309.926 303.482C310.398 308.966 308.199 343.344 306.226 361.338C303.865 382.872 297.877 413.139 290.882 438.894C290.095 441.793 289.114 445.436 288.703 446.989C287.698 450.78 284.341 462.57 283.664 464.684C283.365 465.616 282.499 468.411 281.738 470.896C277.729 483.998 270.126 506.012 265.549 517.768C264.461 520.562 264.019 522.452 264.668 521.533C264.887 521.223 266.515 518.343 268.285 515.133C280.946 492.175 289.975 473.248 298.28 452.26C302.859 440.686 309.648 420.711 311.395 413.67C311.498 413.256 311.913 411.816 312.318 410.47C312.976 408.279 315.812 398.221 317.307 392.775C318.449 388.611 320.061 382.32 321.02 378.28C321.56 376.002 322.245 373.122 322.542 371.88C324.075 365.455 325.134 360.035 327.799 344.961C328.789 339.364 330.85 323.709 332.137 312.018C332.364 309.948 332.788 306.312 333.077 303.94C333.989 296.46 334.66 298.251 325.311 283.201C318.088 271.573 315.086 266.757 309.131 257.239C306.82 253.546 290.07 226.644 288.151 223.544C280.195 210.69 261.428 181.22 260.785 180.57C260.341 180.122 257.488 178.887 254.367 177.792C251.276 176.708 248.284 175.657 247.717 175.456C247.15 175.255 246.687 174.876 246.687 174.612C246.687 173.972 248.159 173.773 256.869 173.238C263.523 172.829 264.332 172.844 265.17 173.396C265.68 173.732 268.767 177.106 272.028 180.892C285.213 196.202 298.544 211.201 314.122 228.252C323.859 238.909 341.591 258.354 346.909 264.204C354.492 272.548 359.234 278.218 359.913 279.753C360.532 281.152 360.672 282.798 360.946 291.903C361.236 301.495 360.968 316.997 360.384 324.516C360.005 329.399 359.085 338.958 358.725 341.761C358.538 343.21 358.187 346.006 357.943 347.973C356.009 363.597 350.988 386.958 346.533 401.057C344.879 406.294 341.401 416.789 341.107 417.435C340.918 417.849 340.331 419.431 339.802 420.951C336.618 430.098 328.065 449.119 323.538 457.12C319.811 463.707 324.585 458.899 331.156 449.448C344.827 429.787 356.175 406.22 364.919 379.333C372.5 356.022 379.348 325.63 383.253 297.958C384.429 289.622 385.929 276.892 386.266 272.372L386.319 271.661C386.451 269.89 385.794 268.152 384.523 266.912L384.047 266.447C381.307 263.774 366.374 250.007 360.203 244.464C358.039 242.521 353.403 238.353 349.9 235.202C341.677 227.805 332.564 219.642 329.271 216.723C327.842 215.456 323.545 211.644 319.722 208.252C301.23 191.841 289.562 181.534 280.567 173.665C276.666 170.252 273.389 167.372 273.286 167.265C272.576 166.528 268.839 163.538 268.228 163.218C267.742 162.964 266.755 162.941 265.419 163.154C259.621 164.075 250.121 165.379 249.215 165.378C248.616 165.377 248.185 165.17 248.185 164.882C248.185 164.345 265.757 155.535 268.269 154.813C269.599 154.431 269.955 154.464 270.891 155.055C273.983 157.006 294.363 173.282 327.422 200.203C349.008 217.78 364.892 230.631 371.518 235.876C377.211 240.384 378.206 240.82 378.73 239.039C379.242 237.296 379.696 221.584 379.481 213.002C379.357 208.032 378.927 199.307 378.525 193.613C377.524 179.445 377.404 178.167 375.576 162.176C375.013 157.251 373.753 147.72 373.11 143.514C372.78 141.354 372.367 138.655 372.192 137.516C372.018 136.378 371.706 134.599 371.501 133.563C371.295 132.528 370.929 130.58 370.686 129.234C367.57 111.956 362.863 94.7369 357.514 81.0433C355.147 74.9834 351.011 66.3321 349.775 64.8544L349.535 64.5672C349.347 64.342 348.98 64.472 348.976 64.7655V64.7655C348.969 65.2342 349.127 65.9119 349.327 66.2715C350.143 67.7398 353.96 81.7579 355.143 87.6318C360.342 113.445 362.215 134.845 362.245 168.765C362.263 189.841 361.846 207.033 361.306 207.367C361.043 207.531 359.147 206.194 348.211 198.131C346.386 196.785 341.551 193.246 337.468 190.266C333.385 187.286 328.782 183.898 327.241 182.736C325.699 181.575 324.069 180.37 323.618 180.059C322.341 179.179 310.983 170.903 310.563 170.548C310.357 170.373 307.238 168.078 303.632 165.447C300.026 162.816 296.287 160.072 295.323 159.349C294.36 158.626 292.036 156.934 290.159 155.588C288.283 154.242 285.7 152.371 284.419 151.431C277.844 146.603 271.009 142.034 270.362 142.034C269.684 142.034 267.557 143.279 252.411 152.538C247.141 155.759 245.714 156.313 246.01 155.019C246.14 154.452 263.017 136.213 266.474 132.904C267.755 131.677 269.075 130.74 269.522 130.74C269.954 130.74 273.212 132.651 276.761 134.986C280.31 137.322 286.462 141.346 290.431 143.928C317.24 161.368 323.83 165.664 331.867 170.942C336.437 173.942 339.217 175.542 339.734 175.468C340.828 175.311 340.938 173.506 340.188 168.012C339.862 165.631 339.42 162.327 339.206 160.67C338.393 154.409 336.479 142.744 334.88 134.316C331.755 117.849 328.994 107.641 323.933 93.8439C323.515 92.705 322.47 89.8249 321.612 87.4436C318.7 79.3713 313.476 66.4032 310.72 60.4043C310.118 59.0956 309.626 57.9466 309.626 57.8502C309.626 57.7542 308.007 54.42 306.029 50.4409C302.914 44.1777 297.757 35.0302 296.008 32.6655C294.585 30.7424 295.133 33.0126 297.572 39.1486C308.017 65.4278 314.993 92.3421 318.59 120.251C319.354 126.176 319.657 128.707 320.681 137.705C321.802 147.557 321.946 148.694 322.193 149.684C322.369 150.387 322.299 150.693 321.964 150.693C321.525 150.693 316.938 147.801 297.14 135.044C293.466 132.677 290.306 130.74 290.116 130.74C289.926 130.74 289.77 130.57 289.77 130.363C289.77 130.156 289.614 129.987 289.423 129.987C289.232 129.987 288.094 129.331 286.894 128.53C285.694 127.728 283.448 126.258 281.903 125.261C280.357 124.265 278.391 122.972 277.533 122.389C276.675 121.805 275.905 121.327 275.821 121.327C275.737 121.327 274.259 120.396 272.537 119.257C270.814 118.118 269.091 117.186 268.707 117.186C268.007 117.186 256.341 128.924 246.912 139.116C241.002 145.505 240.63 145.651 241.865 141.093C242.258 139.644 242.618 137.526 242.666 136.387C242.742 134.575 242.579 134.034 241.364 132.057C239.479 128.992 235.432 124.394 231.851 121.249C228.777 118.549 225.83 116.56 225.457 116.935C225.339 117.053 225.853 117.988 226.601 119.01C229.105 122.439 230.952 127.581 230.952 131.127C230.952 133.245 230.062 136.39 229.138 137.536V137.536C228.714 138.062 228.045 138.329 227.376 138.238L223.369 137.697C218.892 137.092 217.843 137.068 214.596 137.491C212.568 137.755 210.136 138.057 209.193 138.162V138.162C208.172 138.276 207.197 137.712 206.785 136.772L206.594 136.335C204.42 131.369 205.876 123.922 210.065 118.581C213.33 114.417 207.073 118.47 201.666 124.021C197.875 127.913 195.177 131.387 194.144 133.706C193.487 135.181 193.456 135.599 193.849 137.659C194.09 138.927 194.529 140.799 194.824 141.82C195.119 142.841 195.361 143.815 195.361 143.985C195.361 145.024 193.762 143.69 189.527 139.116C180.372 129.232 168.448 117.186 167.818 117.186C167.313 117.186 152.6 126.366 148.493 129.243C147.958 129.618 146.44 130.596 145.122 131.415C143.803 132.235 138.93 135.343 134.294 138.322C129.658 141.301 124.548 144.583 122.938 145.616C121.329 146.648 118.922 148.213 117.591 149.093C114.822 150.923 113.852 151.14 114.212 149.846C114.342 149.38 115.034 143.917 115.749 137.705C117.759 120.254 117.789 120.023 119.296 110.033C120.999 98.7405 125.973 76.4603 128.29 69.7487C128.469 69.231 128.908 67.791 129.267 66.5486C131.496 58.8279 135.581 47.1681 138.7 39.6297C141.253 33.4583 141.7 32.0977 141.175 32.1034C140.997 32.1053 139.989 33.4184 138.936 35.0211Z" stroke="url(#paint1_linear_9035_11)" stroke-width="2"/>
</g>
<defs>
<filter id="filter0_d_9035_11" x="0.924625" y="0.952402" width="434.487" height="587.92" filterUnits="userSpaceOnUse" color-interpolation-filters="sRGB">
<feFlood flood-opacity="0" result="BackgroundImageFix"/>
<feColorMatrix in="SourceAlpha" type="matrix" values="0 0 0 0 0 0 0 0 0 0 0 0 0 0 0 0 0 0 127 0" result="hardAlpha"/>
<feOffset dy="18.0283"/>
<feGaussianBlur stdDeviation="24.0377"/>
<feComposite in2="hardAlpha" operator="out"/>
<feColorMatrix type="matrix" values="0 0 0 0 0 0 0 0 0 0 0 0 0 0 0 0 0 0 0.7 0"/>
<feBlend mode="normal" in2="BackgroundImageFix" result="effect1_dropShadow_9035_11"/>
<feBlend mode="normal" in="SourceGraphic" in2="effect1_dropShadow_9035_11" result="shape"/>
</filter>
<linearGradient id="paint0_linear_9035_11" x1="322.281" y1="4.79068" x2="180.924" y2="567.195" gradientUnits="userSpaceOnUse">
<stop stop-color="#EA1D22"/>
<stop offset="1" stop-color="#640204"/>
</linearGradient>
<linearGradient id="paint1_linear_9035_11" x1="322.281" y1="4.79068" x2="180.924" y2="567.195" gradientUnits="userSpaceOnUse">
<stop stop-color="#EA1D22"/>
<stop offset="1" stop-color="#640204"/>
</linearGradient>
</defs>
</svg>
